<svg xmlns="http://www.w3.org/2000/svg" xmlns:xlink="http://www.w3.org/1999/xlink" xmlns:lucid="lucid" width="2222" height="2242"><g transform="translate(321 401)" lucid:page-tab-id="0_0"><path d="M-500-500h2500v2500H-500z" fill="#fff"/><path d="M0 108a8 8 0 0 1 8-8h144a8 8 0 0 1 8 8v104a8 8 0 0 1-8 8H8a8 8 0 0 1-8-8z" stroke="#000" stroke-width="2" fill="#f2f3f5"/><use xlink:href="#a" transform="matrix(1,0,0,1,12,112) translate(24.12111111111112 54.733333333333334)"/><path d="M380 208c0 6.63-26.86 12-60 12s-60-5.37-60-12v-96c0-6.63 26.86-12 60-12s60 5.37 60 12z" stroke="#000" stroke-width="2" fill="#f2f3f5"/><path d="M380 112c0 6.63-26.86 12-60 12s-60-5.37-60-12" stroke="#000" stroke-width="2" fill="none"/><use xlink:href="#b" transform="matrix(1,0,0,1,265,129) translate(31.938333333333336 49.733333333333334)"/><path d="M540 568a8 8 0 0 1 8-8h584a8 8 0 0 1 8 8v704a8 8 0 0 1-8 8H548a8 8 0 0 1-8-8z" stroke="#000" stroke-width="2" fill="#f2f3f5"/><use xlink:href="#c" transform="matrix(1,0,0,1,545,565) translate(179.54000000000002 367)"/><path d="M-200-400c22.1 0 40 17.9 40 40s-17.9 40-40 40h-80c-22.1 0-40-17.9-40-40s17.9-40 40-40z" stroke="#000" stroke-width="2" fill="#fff"/><use xlink:href="#d" transform="matrix(1,0,0,1,-315,-395) translate(44.07155555555556 41.733333333333334)"/><path d="M-200-80c22.1 0 40 17.9 40 40s-17.9 40-40 40h-80c-22.1 0-40-17.9-40-40s17.9-40 40-40z" stroke="#000" stroke-width="2" fill="#fff"/><use xlink:href="#e" transform="matrix(1,0,0,1,-315,-75) translate(40.222333333333346 41.733333333333334)"/><path d="M-157.5-360H-92a12 12 0 0 1 12 12v496a12 12 0 0 0 12 12h46.38" stroke="#54c45e" stroke-width="3" fill="none"/><path d="M-157.46-358.52h-1.63l.1-1.47-.05-1.48h1.6z" stroke="#54c45e" stroke-width=".05" fill="#54c45e"/><path d="M-5.85 160l-14.27 4.63v-9.26z" stroke="#54c45e" stroke-width="3" fill="#54c45e"/><path d="M-157.5-40H-92a12 12 0 0 1 12 12v176a12 12 0 0 0 12 12h46.38" stroke="#54c45e" stroke-width="3" fill="none"/><path d="M-157.46-38.52h-1.63l.1-1.47-.05-1.48h1.6z" stroke="#54c45e" stroke-width=".05" fill="#54c45e"/><path d="M-5.85 160l-14.27 4.63v-9.26z" stroke="#54c45e" stroke-width="3" fill="#54c45e"/><path d="M162.5 160h75.88" stroke="#54c45e" stroke-width="3" fill="none"/><path d="M162.54 161.47H161v-2.94h1.54z" stroke="#54c45e" stroke-width=".05" fill="#54c45e"/><path d="M254.15 160l-14.27 4.63v-9.26z" stroke="#54c45e" stroke-width="3" fill="#54c45e"/><path d="M240 308a8 8 0 0 1 8-8h144a8 8 0 0 1 8 8v104a8 8 0 0 1-8 8H248a8 8 0 0 1-8-8z" stroke="#000" stroke-width="2" fill="#fff"/><use xlink:href="#f" transform="matrix(1,0,0,1,252,312) translate(-5.25 54)"/><path d="M320 222.5v55.88" stroke="#54c45e" stroke-width="3" fill="none"/><path d="M320 221l1.48-.05v1.6h-2.96v-1.6z" stroke="#54c45e" stroke-width=".05" fill="#54c45e"/><path d="M320 294.15l-4.63-14.27h9.26z" stroke="#54c45e" stroke-width="3" fill="#54c45e"/><path d="M700 688c0 6.63-26.86 12-60 12s-60-5.37-60-12v-96c0-6.63 26.86-12 60-12s60 5.37 60 12z" stroke="#000" stroke-width="2" fill="#fff"/><path d="M700 592c0 6.63-26.86 12-60 12s-60-5.37-60-12" stroke="#000" stroke-width="2" fill="none"/><use xlink:href="#g" transform="matrix(1,0,0,1,585,609) translate(28.089111111111112 49.733333333333334)"/><path d="M320 421.5v205.17a12 12 0 0 0 12 12h230.62" stroke="#6db1ff" fill="none"/><path d="M320.48 421.5h-.96v-.5h.96z" stroke="#6db1ff" stroke-width=".05" fill="#6db1ff"/><path d="M577.38 638.67l-14.26 4.63v-9.27z" stroke="#6db1ff" fill="#6db1ff"/><path d="M240 868a8 8 0 0 1 8-8h144a8 8 0 0 1 8 8v104a8 8 0 0 1-8 8H248a8 8 0 0 1-8-8z" stroke="#000" stroke-width="2" fill="#fff"/><use xlink:href="#h" transform="matrix(1,0,0,1,252,872) translate(-7.040000000000006 54)"/><path d="M320 858.5V652a12 12 0 0 1 12-12h230.62" stroke="#6db1ff" fill="none"/><path d="M320.48 859h-.96v-.5h.96z" stroke="#6db1ff" stroke-width=".05" fill="#6db1ff"/><path d="M577.38 640l-14.26 4.63v-9.26z" stroke="#6db1ff" fill="#6db1ff"/><path d="M-200 240c22.1 0 40 17.9 40 40s-17.9 40-40 40h-80c-22.1 0-40-17.9-40-40s17.9-40 40-40z" stroke="#000" stroke-width="2" fill="#fff"/><use xlink:href="#i" transform="matrix(1,0,0,1,-315,245) translate(42.30966666666667 41.733333333333334)"/><path d="M-200 560c22.1 0 40 17.9 40 40s-17.9 40-40 40h-80c-22.1 0-40-17.9-40-40s17.9-40 40-40z" stroke="#000" stroke-width="2" fill="#fff"/><use xlink:href="#j" transform="matrix(1,0,0,1,-315,565) translate(38.46044444444445 41.733333333333334)"/><path d="M-157.5 280H-92a12 12 0 0 0 12-12v-96a12 12 0 0 1 12-12h46.38" stroke="#54c45e" stroke-width="3" fill="none"/><path d="M-157.46 281.48h-1.63l.1-1.47-.05-1.48h1.6z" stroke="#54c45e" stroke-width=".05" fill="#54c45e"/><path d="M-5.85 160l-14.27 4.63v-9.26z" stroke="#54c45e" stroke-width="3" fill="#54c45e"/><path d="M-157.5 600H-92a12 12 0 0 0 12-12V172a12 12 0 0 1 12-12h46.38" stroke="#54c45e" stroke-width="3" fill="none"/><path d="M-157.46 601.48h-1.63l.1-1.47-.05-1.48h1.6z" stroke="#54c45e" stroke-width=".05" fill="#54c45e"/><path d="M-5.85 160l-14.27 4.63v-9.26z" stroke="#54c45e" stroke-width="3" fill="#54c45e"/><path d="M-200 880c22.1 0 40 17.9 40 40s-17.9 40-40 40h-80c-22.1 0-40-17.9-40-40s17.9-40 40-40z" stroke="#000" stroke-width="2" fill="#fff"/><use xlink:href="#k" transform="matrix(1,0,0,1,-315,885) translate(57.63922222222222 41.733333333333334)"/><path d="M-157.5 920h375.88" stroke="#54c45e" stroke-width="3" fill="none"/><path d="M-157.46 921.48h-1.63l.1-1.47-.05-1.48h1.6z" stroke="#54c45e" stroke-width=".05" fill="#54c45e"/><path d="M234.15 920l-14.27 4.63v-9.26z" stroke="#54c45e" stroke-width="3" fill="#54c45e"/><path d="M680 1140c22.1 0 40 17.9 40 40s-17.9 40-40 40h-80c-22.1 0-40-17.9-40-40s17.9-40 40-40z" stroke="#000" stroke-width="2" fill="#fff"/><use xlink:href="#l" transform="matrix(1,0,0,1,565,1145) translate(46.02422222222223 41.733333333333334)"/><path d="M1084 580c8.84 0 16 26.86 16 60s-7.16 60-16 60H956c-8.84 0-16-26.86-16-60s7.16-60 16-60z" stroke="#000" stroke-width="2" fill="#fcfcca"/><path d="M1084 700c-8.84 0-16-26.86-16-60s7.16-60 16-60" stroke="#000" stroke-width="2" fill="none"/><use xlink:href="#m" transform="matrix(1,0,0,1,945,585) translate(33.82855555555556 61.733333333333334)"/><path d="M640 1137.5V1111a12 12 0 0 1 12-12h136a12 12 0 0 0 12-12V652a12 12 0 0 1 12-12h106.38" stroke="#54c45e" stroke-width="3" fill="none"/><path d="M641.48 1139h-2.96v-1.54h2.96z" stroke="#54c45e" stroke-width=".05" fill="#54c45e"/><path d="M934.14 640l-14.26 4.63v-9.26z" stroke="#54c45e" stroke-width="3" fill="#54c45e"/><path d="M421.62 920H788a12 12 0 0 0 12-12V652a12 12 0 0 1 12-12h106.38" stroke="#54c45e" stroke-width="3" fill="none"/><path d="M405.85 920l14.27-4.63v9.26zM934.14 640l-14.26 4.63v-9.26z" stroke="#54c45e" stroke-width="3" fill="#54c45e"/><path d="M421.62 360H788a12 12 0 0 1 12 12v256a12 12 0 0 0 12 12h106.38" stroke="#54c45e" stroke-width="3" fill="none"/><path d="M405.85 360l14.27-4.63v9.26zM934.14 640l-14.26 4.63v-9.26z" stroke="#54c45e" stroke-width="3" fill="#54c45e"/><path d="M940 108a8 8 0 0 1 8-8h144a8 8 0 0 1 8 8v104a8 8 0 0 1-8 8H948a8 8 0 0 1-8-8z" stroke="#000" stroke-width="2" fill="#fff"/><path d="M956 100v120m128-120v120" stroke="#000" stroke-width="2" fill="none"/><use xlink:href="#n" transform="matrix(1,0,0,1,965,105) translate(-7.945444444444433 61.733333333333334)"/><path d="M1020 241.62v316.76" stroke="#54c45e" stroke-width="3" fill="none"/><path d="M1020 225.85l4.63 14.27h-9.27zM1020 574.15l-4.63-14.27h9.26z" stroke="#54c45e" stroke-width="3" fill="#54c45e"/><path d="M401.5 360h6.5a12 12 0 0 0 12-12v-56a12 12 0 0 1 12-12h316a12 12 0 0 0 12-12v-96a12 12 0 0 1 12-12h150.62" stroke="#6db1ff" fill="none"/><path d="M401.5 360.48h-.5v-.96h.5z" stroke="#6db1ff" stroke-width=".05" fill="#6db1ff"/><path d="M937.38 160l-14.26 4.63v-9.26z" stroke="#6db1ff" fill="#6db1ff"/><path d="M401.5 920h6.5a12 12 0 0 0 12-12v-46a12 12 0 0 1 12-12h316a12 12 0 0 0 12-12V172a12 12 0 0 1 12-12h150.62" stroke="#6db1ff" fill="none"/><path d="M401.5 920.48h-.5v-.96h.5z" stroke="#6db1ff" stroke-width=".05" fill="#6db1ff"/><path d="M937.38 160l-14.26 4.63v-9.26z" stroke="#6db1ff" fill="#6db1ff"/><path d="M80 98.5V71a12 12 0 0 1 12-12h795a12 12 0 0 1 12 12v77a12 12 0 0 0 12 12h11.62" stroke="#6db1ff" fill="none"/><path d="M80.47 99h-.94v-.5h.94z" stroke="#6db1ff" stroke-width=".05" fill="#6db1ff"/><path d="M937.38 160l-14.26 4.63v-9.26z" stroke="#6db1ff" fill="#6db1ff"/><path d="M80 221.5V628a12 12 0 0 0 12 12h470.62" stroke="#6db1ff" fill="none"/><path d="M80.47 221.5h-.94v-.5h.94z" stroke="#6db1ff" stroke-width=".05" fill="#6db1ff"/><path d="M577.38 640l-14.26 4.63v-9.26z" stroke="#6db1ff" fill="#6db1ff"/><path d="M1340 588a8 8 0 0 1 8-8h144a8 8 0 0 1 8 8v104a8 8 0 0 1-8 8h-144a8 8 0 0 1-8-8z" stroke="#000" stroke-width="2" fill="#fff"/><use xlink:href="#o" transform="matrix(1,0,0,1,1352,592) translate(-0.12222222222222001 54.66666666666667)"/><path d="M1121.62 640h196.76" stroke="#54c45e" stroke-width="3" fill="none"/><path d="M1105.86 640l14.26-4.63v9.26zM1334.15 640l-14.27 4.63v-9.26z" stroke="#54c45e" stroke-width="3" fill="#54c45e"/><path d="M960 1128a8 8 0 0 1 8-8h104a8 8 0 0 1 8 8v56a16.64 16.64 0 0 1-6.25 13l-47.5 38a10 10 0 0 1-12.5 0l-47.5-38a16.64 16.64 0 0 1-6.25-13z" stroke="#000" stroke-width="2" fill="#fff"/><use xlink:href="#p" transform="matrix(1,0,0,1,965,1125) translate(33.72266666666667 61.733333333333334)"/><path d="M640 701.5V868a12 12 0 0 0 12 12h176a12 12 0 0 1 12 12v276a12 12 0 0 0 12 12h90.62" stroke="#6db1ff" fill="none"/><path d="M640 701l.48-.02v.53h-.96V701z" stroke="#6db1ff" stroke-width=".05" fill="#6db1ff"/><path d="M957.38 1180l-14.26 4.63v-9.27z" stroke="#6db1ff" fill="#6db1ff"/><path d="M1020 702.5v395.88" stroke="#54c45e" stroke-width="3" fill="none"/><path d="M1021.48 702.54h-2.96V701h2.96z" stroke="#54c45e" stroke-width=".05" fill="#54c45e"/><path d="M1020 1114.15l-4.63-14.27h9.26z" stroke="#54c45e" stroke-width="3" fill="#54c45e"/><path d="M1340 108a8 8 0 0 1 8-8h144a8 8 0 0 1 8 8v112c-26.72-20.04-43.36-20.04-53.44-20.04-16 0-37.28 20.04-53.28 20.04-9.92 0-26.72 0-53.28-20.04z" stroke="#000" stroke-width="2" fill="#fff"/><use xlink:href="#q" transform="matrix(1,0,0,1,1345,105) translate(-0.937777777777768 50.333333333333336)"/><path d="M1121.62 160h16.4m16.4 0h32.8m16.38 0h32.8m16.4 0h32.8m16.38 0h16.4" stroke="#6db1ff" stroke-width="3" fill="none"/><path d="M1105.85 160l14.27-4.63v9.26zM1334.15 160l-14.27 4.63v-9.26z" stroke="#6db1ff" stroke-width="3" fill="#6db1ff"/><path d="M1740 108a8 8 0 0 1 8-8h144a8 8 0 0 1 8 8v112c-26.72-20.04-43.36-20.04-53.44-20.04-16 0-37.28 20.04-53.28 20.04-9.92 0-26.72 0-53.28-20.04z" stroke="#000" stroke-width="2" fill="#fff"/><use xlink:href="#r" transform="matrix(1,0,0,1,1745,105) translate(3.950000000000003 51)"/><path d="M1740 588a8 8 0 0 1 8-8h144a8 8 0 0 1 8 8v112c-26.72-20.04-43.36-20.04-53.44-20.04-16 0-37.28 20.04-53.28 20.04-9.92 0-26.72 0-53.28-20.04z" stroke="#000" stroke-width="2" fill="#fff"/><use xlink:href="#s" transform="matrix(1,0,0,1,1745,585) translate(2.1599999999999966 51)"/><path d="M1740 1068a8 8 0 0 1 8-8h144a8 8 0 0 1 8 8v112c-26.72-20.04-43.36-20.04-53.44-20.04-16 0-37.28 20.04-53.28 20.04-9.92 0-26.72 0-53.28-20.04z" stroke="#000" stroke-width="2" fill="#fff"/><use xlink:href="#t" transform="matrix(1,0,0,1,1745,1065) translate(1.009999999999991 51)"/><path d="M1521.62 640H1608a12 12 0 0 0 12-12V172a12 12 0 0 1 12-12h86.38" stroke="#54c45e" stroke-width="3" fill="none"/><path d="M1505.85 640l14.27-4.63v9.26zM1734.15 160l-14.27 4.63v-9.26z" stroke="#54c45e" stroke-width="3" fill="#54c45e"/><path d="M1521.62 640h16.4m16.4 0h32.8m16.38 0h32.8m16.4 0h32.8m16.38 0h16.4" stroke="#54c45e" stroke-width="3" fill="none"/><path d="M1505.85 640l14.27-4.63v9.26zM1734.15 640l-14.27 4.63v-9.26z" stroke="#54c45e" stroke-width="3" fill="#54c45e"/><path d="M1521.62 640H1608a12 12 0 0 1 12 12v456a12 12 0 0 0 12 12h86.38" stroke="#54c45e" stroke-width="3" fill="none"/><path d="M1505.85 640l14.27-4.63v9.26zM1734.15 1120l-14.27 4.63v-9.27z" stroke="#54c45e" stroke-width="3" fill="#54c45e"/><path d="M240 1428a8 8 0 0 1 8-8h144a8 8 0 0 1 8 8v104a8 8 0 0 1-8 8H248a8 8 0 0 1-8-8z" stroke="#000" stroke-width="2" fill="#fff"/><use xlink:href="#u" transform="matrix(1,0,0,1,252,1432) translate(-7.230000000000004 54)"/><path d="M320 1418.5V1052a12 12 0 0 1 12-12h156a12 12 0 0 0 12-12V292a12 12 0 0 1 12-12h236a12 12 0 0 0 12-12v-96a12 12 0 0 1 12-12h150.62" stroke="#6db1ff" fill="none"/><path d="M320.48 1419h-.96v-.5h.96z" stroke="#6db1ff" stroke-width=".05" fill="#6db1ff"/><path d="M937.38 160l-14.26 4.63v-9.26z" stroke="#6db1ff" fill="#6db1ff"/><path d="M401.5 1480H508a12 12 0 0 0 12-12V652a12 12 0 0 1 12-12h30.62" stroke="#6db1ff" fill="none"/><path d="M401.5 1480.47h-.5v-.94h.5z" stroke="#6db1ff" stroke-width=".05" fill="#6db1ff"/><path d="M577.38 640l-14.26 4.63v-9.26z" stroke="#6db1ff" fill="#6db1ff"/><path d="M1740 1548a8 8 0 0 1 8-8h144a8 8 0 0 1 8 8v112c-26.72-20.04-43.36-20.04-53.44-20.04-16 0-37.28 20.04-53.28 20.04-9.92 0-26.72 0-53.28-20.04z" stroke="#000" stroke-width="2" fill="#fff"/><use xlink:href="#v" transform="matrix(1,0,0,1,1745,1545) translate(-0.7800000000000153 51)"/><path d="M320 1561.62V1588a12 12 0 0 0 12 12h1386.38" stroke="#54c45e" stroke-width="3" fill="none"/><path d="M320 1545.85l4.63 14.27h-9.26zM1734.15 1600l-14.27 4.63v-9.27z" stroke="#54c45e" stroke-width="3" fill="#54c45e"/><path d="M1060 1760c22.1 0 40 17.9 40 40s-17.9 40-40 40h-80c-22.1 0-40-17.9-40-40s17.9-40 40-40z" stroke="#000" stroke-width="2"/><use xlink:href="#w" transform="matrix(1,0,0,1,945,1765) translate(50.58044444444445 41.733333333333334)"/><path d="M1020 1258.82v479.56" stroke="#54c45e" stroke-width="3" fill="none"/><path d="M1020 1243.05l4.63 14.27h-9.27zM1020 1754.15l-4.63-14.27h9.26z" stroke="#54c45e" stroke-width="3" fill="#54c45e"/><path d="M60-371.18a8 8 0 0 1 8-8h559a8 8 0 0 1 8 8V-124a8 8 0 0 1-8 8H68a8 8 0 0 1-8-8z" fill="none"/><use xlink:href="#x" transform="matrix(1,0,0,1,65,-374.1816222031335) translate(0 20.613333333333365)"/><use xlink:href="#y" transform="matrix(1,0,0,1,65,-374.1816222031335) translate(0 52.93333333333336)"/><use xlink:href="#z" transform="matrix(1,0,0,1,65,-374.1816222031335) translate(36.01 85.25333333333336)"/><use xlink:href="#A" transform="matrix(1,0,0,1,65,-374.1816222031335) translate(72.01 85.25333333333336)"/><use xlink:href="#B" transform="matrix(1,0,0,1,65,-374.1816222031335) translate(224.5648888888889 85.25333333333336)"/><use xlink:href="#z" transform="matrix(1,0,0,1,65,-374.1816222031335) translate(36.01 117.57333333333335)"/><use xlink:href="#A" transform="matrix(1,0,0,1,65,-374.1816222031335) translate(72.01 117.57333333333335)"/><use xlink:href="#C" transform="matrix(1,0,0,1,65,-374.1816222031335) translate(224.5648888888889 117.57333333333335)"/><use xlink:href="#B" transform="matrix(1,0,0,1,65,-374.1816222031335) translate(350.9046666666667 117.57333333333335)"/><use xlink:href="#z" transform="matrix(1,0,0,1,65,-374.1816222031335) translate(36.01 149.89333333333332)"/><use xlink:href="#D" transform="matrix(1,0,0,1,65,-374.1816222031335) translate(72.01 149.89333333333332)"/><use xlink:href="#B" transform="matrix(1,0,0,1,65,-374.1816222031335) translate(152.58555555555557 149.89333333333332)"/><use xlink:href="#z" transform="matrix(1,0,0,1,65,-374.1816222031335) translate(36.01 182.2133333333333)"/><use xlink:href="#D" transform="matrix(1,0,0,1,65,-374.1816222031335) translate(72.01 182.2133333333333)"/><use xlink:href="#C" transform="matrix(1,0,0,1,65,-374.1816222031335) translate(152.58555555555557 182.2133333333333)"/><use xlink:href="#B" transform="matrix(1,0,0,1,65,-374.1816222031335) translate(278.92533333333336 182.2133333333333)"/><use xlink:href="#z" transform="matrix(1,0,0,1,65,-374.1816222031335) translate(36.01 214.5333333333333)"/><use xlink:href="#D" transform="matrix(1,0,0,1,65,-374.1816222031335) translate(72.01 214.5333333333333)"/><use xlink:href="#E" transform="matrix(1,0,0,1,65,-374.1816222031335) translate(152.58555555555557 214.5333333333333)"/><use xlink:href="#F" transform="matrix(1,0,0,1,65,-374.1816222031335) translate(193.59155555555557 214.5333333333333)"/><use xlink:href="#G" transform="matrix(1,0,0,1,65,-374.1816222031335) translate(239.82711111111112 214.5333333333333)"/><use xlink:href="#H" transform="matrix(1,0,0,1,65,-374.1816222031335) translate(330.23333333333335 214.5333333333333)"/><use xlink:href="#z" transform="matrix(1,0,0,1,65,-374.1816222031335) translate(36.01 246.8533333333333)"/><use xlink:href="#D" transform="matrix(1,0,0,1,65,-374.1816222031335) translate(72.01 246.8533333333333)"/><use xlink:href="#C" transform="matrix(1,0,0,1,65,-374.1816222031335) translate(152.58555555555557 246.8533333333333)"/><use xlink:href="#E" transform="matrix(1,0,0,1,65,-374.1816222031335) translate(278.92533333333336 246.8533333333333)"/><use xlink:href="#F" transform="matrix(1,0,0,1,65,-374.1816222031335) translate(319.9313333333333 246.8533333333333)"/><use xlink:href="#G" transform="matrix(1,0,0,1,65,-374.1816222031335) translate(366.1668888888889 246.8533333333333)"/><use xlink:href="#I" transform="matrix(1,0,0,1,65,-374.1816222031335) translate(456.5731111111111 246.8533333333333)"/><path d="M21.5-297.85l77.75.64M21.54-297.85H20" stroke="#54c45e" stroke-width="3" fill="none"/><path d="M115.02-297.08l-14.3 4.52.07-9.27z" stroke="#54c45e" stroke-width="3" fill="#54c45e"/><path d="M40.62-265.77l58.63.47" stroke="#54c45e" stroke-width="3" fill="none"/><path d="M24.85-265.9l14.3-4.52-.07 9.27zM115.02-265.17l-14.3 4.52.07-9.27z" stroke="#54c45e" stroke-width="3" fill="#54c45e"/><path d="M20.5-231.57l84.62.68M20.5-231.57H20" stroke="#6db1ff" fill="none"/><path d="M119.9-230.77l-14.3 4.52.06-9.27z" stroke="#6db1ff" fill="#6db1ff"/><path d="M36.87-199.66h64.98" stroke="#6db1ff" fill="none"/><path d="M22.1-199.66l14.27-4.63v9.28zM116.62-199.66l-14.27 4.64v-9.27z" stroke="#6db1ff" fill="#6db1ff"/><path d="M21.8-166.92h5.32m5.3 0h10.64m5.3 0H59m5.3 0h10.63m5.3 0h10.64m5.3 0h5.32M21.82-166.92h-.5" stroke="#6db1ff" fill="none"/><path d="M116.26-166.92L102-162.3v-9.25z" stroke="#6db1ff" fill="#6db1ff"/><path d="M100.43-139.3h-4.67m-4.67 0h-9.35m-4.67 0h-9.34m-4.66 0h-9.34m-4.67 0h-9.34m-4.67 0H30.4" stroke="#6db1ff" fill="none"/><path d="M115.2-139.3l-14.27 4.64v-9.27zM15.63-139.3l14.26-4.63v9.27z" stroke="#6db1ff" fill="#6db1ff"/><path d="M0-112a8 8 0 0 1 8-8h619a8 8 0 0 1 8 8v24a8 8 0 0 1-8 8H8a8 8 0 0 1-8-8z" stroke="#000" stroke-width="2" fill="#f2f3f5"/><g><use xlink:href="#J" transform="matrix(1,0,0,1,5,-115) translate(65.64477777777779 21.733333333333334)"/><use xlink:href="#K" transform="matrix(1,0,0,1,5,-115) translate(108.53611111111111 21.733333333333334)"/><use xlink:href="#L" transform="matrix(1,0,0,1,5,-115) translate(178.15877777777777 21.733333333333334)"/><use xlink:href="#M" transform="matrix(1,0,0,1,5,-115) translate(208.369 21.733333333333334)"/><use xlink:href="#N" transform="matrix(1,0,0,1,5,-115) translate(329.68122222222223 21.733333333333334)"/><use xlink:href="#O" transform="matrix(1,0,0,1,5,-115) translate(414.207 21.733333333333334)"/><use xlink:href="#P" transform="matrix(1,0,0,1,5,-115) translate(487.9818888888889 21.733333333333334)"/><use xlink:href="#Q" transform="matrix(1,0,0,1,5,-115) translate(537.2025555555556 21.733333333333334)"/></g><path d="M679.77-300l12.96.12m12.96.1l25.9.22m12.97.1l12.96.1M679.8-300h-1.52" stroke="#54c45e" stroke-width="3" fill="none"/><path d="M773.3-299.22L759-294.7l.07-9.27z" stroke="#54c45e" stroke-width="3" fill="#54c45e"/><path d="M698.9-268.08h20.16m20.16 0h20.16" stroke="#54c45e" stroke-width="3" fill="none"/><path d="M683.13-268.08l14.26-4.64v9.27zM775.15-268.08l-14.27 4.63v-9.27z" stroke="#54c45e" stroke-width="3" fill="#54c45e"/><path d="M710.45-369.58a8 8 0 0 1 8-8h419.9a8 8 0 0 1 8 8v117.9a8 8 0 0 1-8 8h-419.9a8 8 0 0 1-8-8z" fill="none"/><g><use xlink:href="#y" transform="matrix(1,0,0,1,715.4510302366273,-372.57994969505995) translate(0 20.253333333333345)"/><use xlink:href="#y" transform="matrix(1,0,0,1,715.4510302366273,-372.57994969505995) translate(0 52.57333333333334)"/><use xlink:href="#z" transform="matrix(1,0,0,1,715.4510302366273,-372.57994969505995) translate(36.01 84.89333333333332)"/><use xlink:href="#A" transform="matrix(1,0,0,1,715.4510302366273,-372.57994969505995) translate(72.01 84.89333333333332)"/><use xlink:href="#B" transform="matrix(1,0,0,1,715.4510302366273,-372.57994969505995) translate(224.5648888888889 84.89333333333332)"/><use xlink:href="#z" transform="matrix(1,0,0,1,715.4510302366273,-372.57994969505995) translate(36.01 117.21333333333331)"/><use xlink:href="#A" transform="matrix(1,0,0,1,715.4510302366273,-372.57994969505995) translate(72.01 117.21333333333331)"/><use xlink:href="#C" transform="matrix(1,0,0,1,715.4510302366273,-372.57994969505995) translate(224.5648888888889 117.21333333333331)"/><use xlink:href="#R" transform="matrix(1,0,0,1,715.4510302366273,-372.57994969505995) translate(350.9046666666667 117.21333333333331)"/></g><defs><path fill="#3a414a" d="M241 12c-93 0-141-42-141-142v-276H14v-62h86v-107l85-15v122h125v62H185v272c0 58 22 80 74 80 22 0 41-4 55-10V0c-15 6-40 12-73 12" id="S"/><path fill="#3a414a" d="M124-550c-32 0-56-19-56-50 0-32 24-52 56-52 31 0 56 20 56 52 0 31-26 50-56 50zM81 0v-468h85V0H81" id="T"/><path fill="#3a414a" d="M746-309V0h-84v-300c0-83-35-110-90-110s-94 35-122 79V0h-82v-302c-1-160-157-118-211-35V0H72c-2-148 6-333-6-468h76c3 9 11 35 13 72 38-45 77-84 151-84 71 0 114 31 135 92 38-56 85-92 149-92 90 0 156 48 156 171" id="U"/><path fill="#3a414a" d="M280 12C132 12 42-86 42-234c0-147 88-246 224-246 138 1 219 105 203 256H129c4 104 54 170 160 170 60 0 113-16 158-48v66C403-3 341 12 280 12zM130-281h257c2-80-43-137-124-137-74 0-123 57-133 137" id="V"/><path fill="#3a414a" d="M246 11C119 11 42-85 42-228c0-145 84-252 212-252 62 0 103 21 142 59v-299h85c2 237-5 492 5 720h-73s-7-23-9-55c-41 42-90 66-158 66zm22-64c53 0 95-25 128-62v-236c-17-20-58-64-126-64-90 0-140 72-140 185 0 115 48 177 138 177" id="W"/><path fill="#3a414a" d="M272 12C130 12 40-95 40-236c0-150 92-244 232-244 138 0 229 94 229 244 0 141-89 248-229 248zm0-68c87 0 140-79 140-180 0-109-54-176-140-176-88 0-144 67-144 176 0 101 54 180 144 180" id="X"/><path fill="#3a414a" d="M72 0c-2-150 6-331-6-468h76c5 11 11 36 13 64 35-62 115-95 185-63v75c-60-28-141-20-183 41V0H72" id="Y"/><g id="a"><use transform="matrix(0.02244444444444444,0,0,0.02244444444444444,0,0)" xlink:href="#S"/><use transform="matrix(0.02244444444444444,0,0,0.02244444444444444,7.698444444444443,0)" xlink:href="#T"/><use transform="matrix(0.02244444444444444,0,0,0.02244444444444444,13.264666666666665,0)" xlink:href="#U"/><use transform="matrix(0.02244444444444444,0,0,0.02244444444444444,31.556888888888885,0)" xlink:href="#V"/><use transform="matrix(0.02244444444444444,0,0,0.02244444444444444,43.25044444444444,0)" xlink:href="#W"/><use transform="matrix(0.02244444444444444,0,0,0.02244444444444444,55.5051111111111,0)" xlink:href="#X"/><use transform="matrix(0.02244444444444444,0,0,0.02244444444444444,67.64755555555554,0)" xlink:href="#X"/><use transform="matrix(0.02244444444444444,0,0,0.02244444444444444,79.78999999999998,0)" xlink:href="#Y"/></g><path fill="#3a414a" d="M183 12C125 12 74-4 43-23v-71c39 28 91 44 139 44 61 0 95-24 95-71 0-50-55-66-111-90-75-31-116-70-116-139 0-78 66-130 158-130 57 0 99 15 128 31v69c-50-42-203-67-204 26 0 45 40 59 96 84 71 30 132 64 132 144 0 83-65 138-177 138" id="Z"/><g id="b"><use transform="matrix(0.02244444444444444,0,0,0.02244444444444444,0,0)" xlink:href="#Y"/><use transform="matrix(0.02244444444444444,0,0,0.02244444444444444,7.675999999999998,0)" xlink:href="#V"/><use transform="matrix(0.02244444444444444,0,0,0.02244444444444444,19.369555555555554,0)" xlink:href="#W"/><use transform="matrix(0.02244444444444444,0,0,0.02244444444444444,31.624222222222215,0)" xlink:href="#T"/><use transform="matrix(0.02244444444444444,0,0,0.02244444444444444,37.19044444444444,0)" xlink:href="#Z"/></g><path fill="#3a414a" d="M183-700V0H90v-700h93" id="aa"/><path fill="#3a414a" d="M72 0c-2-148 6-333-6-468h76c4 9 11 34 13 72 40-49 89-84 157-84 73 0 157 37 157 173V0h-85v-298c-2-163-168-125-227-39V0H72" id="ab"/><path fill="#3a414a" d="M100 0v-406H20v-62h80v-118c-6-125 96-159 203-131v63c-9-3-30-9-53-9-84-7-63 115-65 195h115v62H185V0h-85" id="ac"/><path fill="#3a414a" d="M188 8C95 8 37-49 37-138c0-84 73-148 191-148 35 0 66 4 93 15 7-93-15-148-110-147-59 0-109 21-138 35v-67c27-14 86-30 153-30 116 0 179 52 179 155v205c0 62 23 82 63 65-3 49 16 59-52 61-40 0-78-13-90-70-33 50-74 72-138 72zm23-63c50 0 90-30 110-72v-93c-21-8-45-13-79-13-80 0-116 40-116 94 0 55 31 84 85 84" id="ad"/><path fill="#3a414a" d="M227 12C152 12 69-24 69-160v-308h85v298c0 162 168 126 226 39v-337h85c3 148-6 335 7 468h-77c-3-9-11-34-13-71-40 47-89 83-155 83" id="ae"/><path fill="#3a414a" d="M279 12C136 12 42-88 42-235c0-152 97-245 242-245 51 0 102 14 128 31v75c-28-20-73-40-122-40-104 0-159 70-159 178 0 112 57 181 157 181 50 0 92-14 124-37v72c-34 21-81 32-133 32" id="af"/><g id="c"><use transform="matrix(0.04,0,0,0.04,0,0)" xlink:href="#aa"/><use transform="matrix(0.04,0,0,0.04,10.92,0)" xlink:href="#ab"/><use transform="matrix(0.04,0,0,0.04,32.4,0)" xlink:href="#ac"/><use transform="matrix(0.04,0,0,0.04,44.44,0)" xlink:href="#Y"/><use transform="matrix(0.04,0,0,0.04,58.480000000000004,0)" xlink:href="#ad"/><use transform="matrix(0.04,0,0,0.04,77.84,0)" xlink:href="#Z"/><use transform="matrix(0.04,0,0,0.04,93.56,0)" xlink:href="#S"/><use transform="matrix(0.04,0,0,0.04,107.28,0)" xlink:href="#Y"/><use transform="matrix(0.04,0,0,0.04,121.48,0)" xlink:href="#ae"/><use transform="matrix(0.04,0,0,0.04,142.96,0)" xlink:href="#af"/><use transform="matrix(0.04,0,0,0.04,161.64000000000001,0)" xlink:href="#S"/><use transform="matrix(0.04,0,0,0.04,175.36,0)" xlink:href="#ae"/><use transform="matrix(0.04,0,0,0.04,196.84,0)" xlink:href="#Y"/><use transform="matrix(0.04,0,0,0.04,210.51999999999998,0)" xlink:href="#V"/></g><path fill="#3a414a" d="M66 234c-3-228 7-485-6-702h73s9 24 12 57c41-43 81-69 149-69 130 0 212 98 212 241S421 11 290 11c-61 0-102-21-139-57v280H66zM272-50c92 0 145-74 145-189 0-114-52-176-143-176-51 0-90 26-123 61v238c34 38 70 66 121 66" id="ag"/><path fill="#3a414a" d="M206 8C114 8 72-33 72-134v-586h85v587c0 53 20 75 70 75 19 0 42-4 50-7v63c-10 4-38 10-71 10" id="ah"/><path fill="#3a414a" d="M60-258v-76h250v76H60" id="ai"/><path fill="#3a414a" d="M139 0v-634H20v-66h202V0h-83" id="aj"/><g id="d"><use transform="matrix(0.02244444444444444,0,0,0.02244444444444444,0,0)" xlink:href="#ag"/><use transform="matrix(0.02244444444444444,0,0,0.02244444444444444,12.27711111111111,0)" xlink:href="#ah"/><use transform="matrix(0.02244444444444444,0,0,0.02244444444444444,18.65133333333333,0)" xlink:href="#af"/><use transform="matrix(0.02244444444444444,0,0,0.02244444444444444,28.841111111111108,0)" xlink:href="#ai"/><use transform="matrix(0.02244444444444444,0,0,0.02244444444444444,36.24777777777777,0)" xlink:href="#aj"/><use transform="matrix(0.02244444444444444,0,0,0.02244444444444444,42.95866666666665,0)" xlink:href="#ai"/><use transform="matrix(0.02244444444444444,0,0,0.02244444444444444,51.667111111111105,0)" xlink:href="#af"/></g><g id="e"><use transform="matrix(0.02244444444444444,0,0,0.02244444444444444,0,0)" xlink:href="#ag"/><use transform="matrix(0.02244444444444444,0,0,0.02244444444444444,12.27711111111111,0)" xlink:href="#ah"/><use transform="matrix(0.02244444444444444,0,0,0.02244444444444444,18.65133333333333,0)" xlink:href="#af"/><use transform="matrix(0.02244444444444444,0,0,0.02244444444444444,28.841111111111108,0)" xlink:href="#ai"/><use transform="matrix(0.02244444444444444,0,0,0.02244444444444444,36.24777777777777,0)" xlink:href="#aj"/><use transform="matrix(0.02244444444444444,0,0,0.02244444444444444,42.95866666666665,0)" xlink:href="#ai"/><use transform="matrix(0.02244444444444444,0,0,0.02244444444444444,51.263111111111094,0)" xlink:href="#U"/></g><path fill="#3a414a" d="M244 244c-71 0-140-23-174-47v-74c32 22 93 54 168 54 125 3 170-85 158-223-39 36-84 54-144 54C118 8 42-88 42-229c0-142 83-251 212-251 67 0 109 24 150 67 3-27 7-41 11-55h71c-10 139-5 329-5 480 0 150-93 232-237 232zm24-300c54 0 97-25 128-60v-234c-16-19-56-65-127-65-87 0-139 73-139 186 0 109 47 173 138 173" id="ak"/><path fill="#3a414a" d="M210 5L6-468h90l132 329 130-329h89L245 5h-35" id="al"/><g id="f"><use transform="matrix(0.02,0,0,0.02,0,0)" xlink:href="#U"/><use transform="matrix(0.02,0,0,0.02,16.3,0)" xlink:href="#V"/><use transform="matrix(0.02,0,0,0.02,26.760000000000005,0)" xlink:href="#Z"/><use transform="matrix(0.02,0,0,0.02,34.7,0)" xlink:href="#Z"/><use transform="matrix(0.02,0,0,0.02,42.6,0)" xlink:href="#ad"/><use transform="matrix(0.02,0,0,0.02,52.28,0)" xlink:href="#ak"/><use transform="matrix(0.02,0,0,0.02,63.18,0)" xlink:href="#V"/><use transform="matrix(0.02,0,0,0.02,73.88,0)" xlink:href="#ai"/><use transform="matrix(0.02,0,0,0.02,81.54,0)" xlink:href="#Z"/><use transform="matrix(0.02,0,0,0.02,89.5,0)" xlink:href="#V"/><use transform="matrix(0.02,0,0,0.02,99.7,0)" xlink:href="#Y"/><use transform="matrix(0.02,0,0,0.02,107.39999999999998,0)" xlink:href="#al"/><use transform="matrix(0.02,0,0,0.02,116.25999999999999,0)" xlink:href="#V"/><use transform="matrix(0.02,0,0,0.02,126.46000000000001,0)" xlink:href="#Y"/><use transform="matrix(0.02,0,0,0.02,133.46,0)" xlink:href="#ai"/><use transform="matrix(0.02,0,0,0.02,140.06,0)" xlink:href="#aj"/></g><path fill="#3a414a" d="M9 0l177-244L22-468h96l116 166 115-166h94L278-242 456 0h-95L231-183 103 0H9" id="am"/><g id="g"><use transform="matrix(0.02244444444444444,0,0,0.02244444444444444,0,0)" xlink:href="#T"/><use transform="matrix(0.02244444444444444,0,0,0.02244444444444444,5.566222222222221,0)" xlink:href="#ab"/><use transform="matrix(0.02244444444444444,0,0,0.02244444444444444,17.618888888888886,0)" xlink:href="#ac"/><use transform="matrix(0.02244444444444444,0,0,0.02244444444444444,24.778666666666663,0)" xlink:href="#ah"/><use transform="matrix(0.02244444444444444,0,0,0.02244444444444444,31.332444444444437,0)" xlink:href="#ae"/><use transform="matrix(0.02244444444444444,0,0,0.02244444444444444,43.38511111111111,0)" xlink:href="#am"/></g><path fill="#3a414a" d="M22 0v-28l196-235c79-95 125-165 125-239 0-81-53-140-136-140-67 0-120 28-159 58v-79c48-33 108-51 171-51 128 0 212 88 212 207 0 134-199 329-278 437h304V0H22" id="an"/><g id="h"><use transform="matrix(0.02,0,0,0.02,0,0)" xlink:href="#U"/><use transform="matrix(0.02,0,0,0.02,16.3,0)" xlink:href="#V"/><use transform="matrix(0.02,0,0,0.02,26.760000000000005,0)" xlink:href="#Z"/><use transform="matrix(0.02,0,0,0.02,34.7,0)" xlink:href="#Z"/><use transform="matrix(0.02,0,0,0.02,42.6,0)" xlink:href="#ad"/><use transform="matrix(0.02,0,0,0.02,52.28,0)" xlink:href="#ak"/><use transform="matrix(0.02,0,0,0.02,63.18,0)" xlink:href="#V"/><use transform="matrix(0.02,0,0,0.02,73.88,0)" xlink:href="#ai"/><use transform="matrix(0.02,0,0,0.02,81.54,0)" xlink:href="#Z"/><use transform="matrix(0.02,0,0,0.02,89.5,0)" xlink:href="#V"/><use transform="matrix(0.02,0,0,0.02,99.7,0)" xlink:href="#Y"/><use transform="matrix(0.02,0,0,0.02,107.39999999999998,0)" xlink:href="#al"/><use transform="matrix(0.02,0,0,0.02,116.25999999999999,0)" xlink:href="#V"/><use transform="matrix(0.02,0,0,0.02,126.46000000000001,0)" xlink:href="#Y"/><use transform="matrix(0.02,0,0,0.02,133.46,0)" xlink:href="#ai"/><use transform="matrix(0.02,0,0,0.02,140.06,0)" xlink:href="#an"/></g><g id="i"><use transform="matrix(0.02244444444444444,0,0,0.02244444444444444,0,0)" xlink:href="#ag"/><use transform="matrix(0.02244444444444444,0,0,0.02244444444444444,12.27711111111111,0)" xlink:href="#ah"/><use transform="matrix(0.02244444444444444,0,0,0.02244444444444444,18.65133333333333,0)" xlink:href="#af"/><use transform="matrix(0.02244444444444444,0,0,0.02244444444444444,28.841111111111108,0)" xlink:href="#ai"/><use transform="matrix(0.02244444444444444,0,0,0.02244444444444444,36.24777777777777,0)" xlink:href="#an"/><use transform="matrix(0.02244444444444444,0,0,0.02244444444444444,46.48244444444444,0)" xlink:href="#ai"/><use transform="matrix(0.02244444444444444,0,0,0.02244444444444444,55.19088888888888,0)" xlink:href="#af"/></g><g id="j"><use transform="matrix(0.02244444444444444,0,0,0.02244444444444444,0,0)" xlink:href="#ag"/><use transform="matrix(0.02244444444444444,0,0,0.02244444444444444,12.27711111111111,0)" xlink:href="#ah"/><use transform="matrix(0.02244444444444444,0,0,0.02244444444444444,18.65133333333333,0)" xlink:href="#af"/><use transform="matrix(0.02244444444444444,0,0,0.02244444444444444,28.841111111111108,0)" xlink:href="#ai"/><use transform="matrix(0.02244444444444444,0,0,0.02244444444444444,36.24777777777777,0)" xlink:href="#an"/><use transform="matrix(0.02244444444444444,0,0,0.02244444444444444,46.48244444444444,0)" xlink:href="#ai"/><use transform="matrix(0.02244444444444444,0,0,0.02244444444444444,54.78688888888888,0)" xlink:href="#U"/></g><g id="k"><use transform="matrix(0.02244444444444444,0,0,0.02244444444444444,0,0)" xlink:href="#ak"/><use transform="matrix(0.02244444444444444,0,0,0.02244444444444444,12.254666666666665,0)" xlink:href="#ag"/><use transform="matrix(0.02244444444444444,0,0,0.02244444444444444,24.53177777777778,0)" xlink:href="#af"/></g><g id="l"><use transform="matrix(0.02244444444444444,0,0,0.02244444444444444,0,0)" xlink:href="#Z"/><use transform="matrix(0.02244444444444444,0,0,0.02244444444444444,8.820666666666666,0)" xlink:href="#S"/><use transform="matrix(0.02244444444444444,0,0,0.02244444444444444,16.51911111111111,0)" xlink:href="#ad"/><use transform="matrix(0.02244444444444444,0,0,0.02244444444444444,27.382222222222218,0)" xlink:href="#U"/><use transform="matrix(0.02244444444444444,0,0,0.02244444444444444,45.67444444444443,0)" xlink:href="#ag"/></g><path fill="#3a414a" d="M363-468h99L290-281 475 0h-99L235-222l-78 85V0H72v-720h85v491" id="ao"/><g id="m"><use transform="matrix(0.02244444444444444,0,0,0.02244444444444444,0,0)" xlink:href="#ao"/><use transform="matrix(0.02244444444444444,0,0,0.02244444444444444,10.81822222222222,0)" xlink:href="#ad"/><use transform="matrix(0.02244444444444444,0,0,0.02244444444444444,21.681333333333328,0)" xlink:href="#ac"/><use transform="matrix(0.02244444444444444,0,0,0.02244444444444444,28.66155555555555,0)" xlink:href="#ao"/><use transform="matrix(0.02244444444444444,0,0,0.02244444444444444,39.47977777777777,0)" xlink:href="#ad"/></g><g id="n"><use transform="matrix(0.02244444444444444,0,0,0.02244444444444444,0,0)" xlink:href="#af"/><use transform="matrix(0.02244444444444444,0,0,0.02244444444444444,10.144888888888888,0)" xlink:href="#X"/><use transform="matrix(0.02244444444444444,0,0,0.02244444444444444,22.28733333333333,0)" xlink:href="#ab"/><use transform="matrix(0.02244444444444444,0,0,0.02244444444444444,34.339999999999996,0)" xlink:href="#ac"/><use transform="matrix(0.02244444444444444,0,0,0.02244444444444444,41.09577777777777,0)" xlink:href="#T"/><use transform="matrix(0.02244444444444444,0,0,0.02244444444444444,46.66199999999999,0)" xlink:href="#ak"/><use transform="matrix(0.02244444444444444,0,0,0.02244444444444444,58.91666666666666,0)" xlink:href="#ai"/><use transform="matrix(0.02244444444444444,0,0,0.02244444444444444,67.51288888888888,0)" xlink:href="#Z"/><use transform="matrix(0.02244444444444444,0,0,0.02244444444444444,76.44577777777776,0)" xlink:href="#V"/><use transform="matrix(0.02244444444444444,0,0,0.02244444444444444,87.89244444444444,0)" xlink:href="#Y"/><use transform="matrix(0.02244444444444444,0,0,0.02244444444444444,96.53355555555557,0)" xlink:href="#al"/><use transform="matrix(0.02244444444444444,0,0,0.02244444444444444,106.47644444444444,0)" xlink:href="#V"/><use transform="matrix(0.02244444444444444,0,0,0.02244444444444444,117.92311111111108,0)" xlink:href="#Y"/></g><path fill="#3a414a" d="M26 244c-20 0-38-3-50-9v-69c129 42 171-90 216-202L6-468h90l137 337 126-337h88L252 20C197 158 140 244 26 244" id="ap"/><g id="o"><use transform="matrix(0.022222222222222223,0,0,0.022222222222222223,0,0)" xlink:href="#U"/><use transform="matrix(0.022222222222222223,0,0,0.022222222222222223,18.11111111111111,0)" xlink:href="#V"/><use transform="matrix(0.022222222222222223,0,0,0.022222222222222223,29.733333333333334,0)" xlink:href="#Z"/><use transform="matrix(0.022222222222222223,0,0,0.022222222222222223,38.55555555555556,0)" xlink:href="#Z"/><use transform="matrix(0.022222222222222223,0,0,0.022222222222222223,47.33333333333332,0)" xlink:href="#ad"/><use transform="matrix(0.022222222222222223,0,0,0.022222222222222223,58.08888888888889,0)" xlink:href="#ak"/><use transform="matrix(0.022222222222222223,0,0,0.022222222222222223,70.2,0)" xlink:href="#V"/><use transform="matrix(0.022222222222222223,0,0,0.022222222222222223,82.08888888888889,0)" xlink:href="#ai"/><use transform="matrix(0.022222222222222223,0,0,0.022222222222222223,90.31111111111112,0)" xlink:href="#Y"/><use transform="matrix(0.022222222222222223,0,0,0.022222222222222223,97.91111111111111,0)" xlink:href="#V"/><use transform="matrix(0.022222222222222223,0,0,0.022222222222222223,109.24444444444445,0)" xlink:href="#ah"/><use transform="matrix(0.022222222222222223,0,0,0.022222222222222223,115.73333333333333,0)" xlink:href="#ad"/><use transform="matrix(0.022222222222222223,0,0,0.022222222222222223,126.2,0)" xlink:href="#ap"/></g><path fill="#3a414a" d="M294 11c-57 0-109-21-151-67-7 38-12 56-12 56H61c10-225 3-485 5-720h85v298c40-36 88-58 151-58 126 0 204 98 204 242 0 142-82 249-212 249zm-19-64c89 0 142-72 142-187 0-114-52-175-142-175-51 0-91 27-124 60v238c15 16 55 64 124 64" id="aq"/><g id="p"><use transform="matrix(0.02244444444444444,0,0,0.02244444444444444,0,0)" xlink:href="#af"/><use transform="matrix(0.02244444444444444,0,0,0.02244444444444444,10.189777777777776,0)" xlink:href="#Y"/><use transform="matrix(0.02244444444444444,0,0,0.02244444444444444,18.157555555555554,0)" xlink:href="#T"/><use transform="matrix(0.02244444444444444,0,0,0.02244444444444444,23.72377777777778,0)" xlink:href="#aq"/><use transform="matrix(0.02244444444444444,0,0,0.02244444444444444,36.00088888888889,0)" xlink:href="#ah"/></g><g id="q"><use transform="matrix(0.017777777777777778,0,0,0.017777777777777778,0,0)" xlink:href="#Z"/><use transform="matrix(0.017777777777777778,0,0,0.017777777777777778,7.022222222222222,0)" xlink:href="#ap"/><use transform="matrix(0.017777777777777778,0,0,0.017777777777777778,14.986666666666668,0)" xlink:href="#Z"/><use transform="matrix(0.017777777777777778,0,0,0.017777777777777778,21.973333333333336,0)" xlink:href="#S"/><use transform="matrix(0.017777777777777778,0,0,0.017777777777777778,27.96444444444445,0)" xlink:href="#V"/><use transform="matrix(0.017777777777777778,0,0,0.017777777777777778,37.031111111111116,0)" xlink:href="#U"/><use transform="matrix(0.017777777777777778,0,0,0.017777777777777778,51.52,0)" xlink:href="#ai"/><use transform="matrix(0.017777777777777778,0,0,0.017777777777777778,58.09777777777778,0)" xlink:href="#U"/><use transform="matrix(0.017777777777777778,0,0,0.017777777777777778,72.58666666666667,0)" xlink:href="#ad"/><use transform="matrix(0.017777777777777778,0,0,0.017777777777777778,81.19111111111111,0)" xlink:href="#ag"/><use transform="matrix(0.017777777777777778,0,0,0.017777777777777778,91.23555555555555,0)" xlink:href="#ai"/><use transform="matrix(0.017777777777777778,0,0,0.017777777777777778,98.13333333333334,0)" xlink:href="#af"/><use transform="matrix(0.017777777777777778,0,0,0.017777777777777778,106.20444444444443,0)" xlink:href="#ah"/><use transform="matrix(0.017777777777777778,0,0,0.017777777777777778,111.39555555555555,0)" xlink:href="#T"/><use transform="matrix(0.017777777777777778,0,0,0.017777777777777778,115.80444444444444,0)" xlink:href="#V"/><use transform="matrix(0.017777777777777778,0,0,0.017777777777777778,124.8711111111111,0)" xlink:href="#ab"/><use transform="matrix(0.017777777777777778,0,0,0.017777777777777778,134.36444444444444,0)" xlink:href="#S"/><use transform="matrix(0.017777777777777778,0,0,0.017777777777777778,140.28444444444443,0)" xlink:href="#ai"/><use transform="matrix(0.017777777777777778,0,0,0.017777777777777778,146.1511111111111,0)" xlink:href="#aj"/></g><g id="r"><use transform="matrix(0.02,0,0,0.02,0,0)" xlink:href="#U"/><use transform="matrix(0.02,0,0,0.02,16.3,0)" xlink:href="#V"/><use transform="matrix(0.02,0,0,0.02,26.760000000000005,0)" xlink:href="#Z"/><use transform="matrix(0.02,0,0,0.02,34.7,0)" xlink:href="#Z"/><use transform="matrix(0.02,0,0,0.02,42.6,0)" xlink:href="#ad"/><use transform="matrix(0.02,0,0,0.02,52.28,0)" xlink:href="#ak"/><use transform="matrix(0.02,0,0,0.02,63.18,0)" xlink:href="#V"/><use transform="matrix(0.02,0,0,0.02,73.88,0)" xlink:href="#ai"/><use transform="matrix(0.02,0,0,0.02,81.64,0)" xlink:href="#af"/><use transform="matrix(0.02,0,0,0.02,90.72,0)" xlink:href="#ah"/><use transform="matrix(0.02,0,0,0.02,96.56,0)" xlink:href="#T"/><use transform="matrix(0.02,0,0,0.02,101.52,0)" xlink:href="#V"/><use transform="matrix(0.02,0,0,0.02,111.72,0)" xlink:href="#ab"/><use transform="matrix(0.02,0,0,0.02,122.39999999999998,0)" xlink:href="#S"/><use transform="matrix(0.02,0,0,0.02,129.06,0)" xlink:href="#ai"/><use transform="matrix(0.02,0,0,0.02,135.66,0)" xlink:href="#aj"/></g><g id="s"><use transform="matrix(0.02,0,0,0.02,0,0)" xlink:href="#U"/><use transform="matrix(0.02,0,0,0.02,16.3,0)" xlink:href="#V"/><use transform="matrix(0.02,0,0,0.02,26.760000000000005,0)" xlink:href="#Z"/><use transform="matrix(0.02,0,0,0.02,34.7,0)" xlink:href="#Z"/><use transform="matrix(0.02,0,0,0.02,42.6,0)" xlink:href="#ad"/><use transform="matrix(0.02,0,0,0.02,52.28,0)" xlink:href="#ak"/><use transform="matrix(0.02,0,0,0.02,63.18,0)" xlink:href="#V"/><use transform="matrix(0.02,0,0,0.02,73.88,0)" xlink:href="#ai"/><use transform="matrix(0.02,0,0,0.02,81.64,0)" xlink:href="#af"/><use transform="matrix(0.02,0,0,0.02,90.72,0)" xlink:href="#ah"/><use transform="matrix(0.02,0,0,0.02,96.56,0)" xlink:href="#T"/><use transform="matrix(0.02,0,0,0.02,101.52,0)" xlink:href="#V"/><use transform="matrix(0.02,0,0,0.02,111.72,0)" xlink:href="#ab"/><use transform="matrix(0.02,0,0,0.02,122.39999999999998,0)" xlink:href="#S"/><use transform="matrix(0.02,0,0,0.02,129.06,0)" xlink:href="#ai"/><use transform="matrix(0.02,0,0,0.02,135.66,0)" xlink:href="#an"/></g><g id="t"><use transform="matrix(0.02,0,0,0.02,0,0)" xlink:href="#S"/><use transform="matrix(0.02,0,0,0.02,6.86,0)" xlink:href="#Y"/><use transform="matrix(0.02,0,0,0.02,13.88,0)" xlink:href="#ad"/><use transform="matrix(0.02,0,0,0.02,23.56,0)" xlink:href="#af"/><use transform="matrix(0.02,0,0,0.02,32.84,0)" xlink:href="#ao"/><use transform="matrix(0.02,0,0,0.02,42.480000000000004,0)" xlink:href="#U"/><use transform="matrix(0.02,0,0,0.02,58.78,0)" xlink:href="#ad"/><use transform="matrix(0.02,0,0,0.02,68.46000000000001,0)" xlink:href="#ag"/><use transform="matrix(0.02,0,0,0.02,79.76,0)" xlink:href="#ai"/><use transform="matrix(0.02,0,0,0.02,87.52,0)" xlink:href="#af"/><use transform="matrix(0.02,0,0,0.02,96.60000000000001,0)" xlink:href="#ah"/><use transform="matrix(0.02,0,0,0.02,102.44000000000003,0)" xlink:href="#T"/><use transform="matrix(0.02,0,0,0.02,107.4,0)" xlink:href="#V"/><use transform="matrix(0.02,0,0,0.02,117.60000000000001,0)" xlink:href="#ab"/><use transform="matrix(0.02,0,0,0.02,128.28,0)" xlink:href="#S"/><use transform="matrix(0.02,0,0,0.02,134.94000000000003,0)" xlink:href="#ai"/><use transform="matrix(0.02,0,0,0.02,141.54000000000002,0)" xlink:href="#aj"/></g><path fill="#3a414a" d="M178 13C125 13 66 4 25-21v-77c111 75 319 52 319-107 0-103-72-160-211-154v-37l165-234H27v-70h385v29L231-416c129 14 200 94 200 211 0 127-99 218-253 218" id="ar"/><g id="u"><use transform="matrix(0.02,0,0,0.02,0,0)" xlink:href="#U"/><use transform="matrix(0.02,0,0,0.02,16.3,0)" xlink:href="#V"/><use transform="matrix(0.02,0,0,0.02,26.760000000000005,0)" xlink:href="#Z"/><use transform="matrix(0.02,0,0,0.02,34.7,0)" xlink:href="#Z"/><use transform="matrix(0.02,0,0,0.02,42.6,0)" xlink:href="#ad"/><use transform="matrix(0.02,0,0,0.02,52.28,0)" xlink:href="#ak"/><use transform="matrix(0.02,0,0,0.02,63.18,0)" xlink:href="#V"/><use transform="matrix(0.02,0,0,0.02,73.88,0)" xlink:href="#ai"/><use transform="matrix(0.02,0,0,0.02,81.54,0)" xlink:href="#Z"/><use transform="matrix(0.02,0,0,0.02,89.5,0)" xlink:href="#V"/><use transform="matrix(0.02,0,0,0.02,99.7,0)" xlink:href="#Y"/><use transform="matrix(0.02,0,0,0.02,107.39999999999998,0)" xlink:href="#al"/><use transform="matrix(0.02,0,0,0.02,116.25999999999999,0)" xlink:href="#V"/><use transform="matrix(0.02,0,0,0.02,126.46000000000001,0)" xlink:href="#Y"/><use transform="matrix(0.02,0,0,0.02,133.46,0)" xlink:href="#ai"/><use transform="matrix(0.02,0,0,0.02,140.86,0)" xlink:href="#ar"/></g><g id="v"><use transform="matrix(0.02,0,0,0.02,0,0)" xlink:href="#S"/><use transform="matrix(0.02,0,0,0.02,6.86,0)" xlink:href="#Y"/><use transform="matrix(0.02,0,0,0.02,13.88,0)" xlink:href="#ad"/><use transform="matrix(0.02,0,0,0.02,23.56,0)" xlink:href="#af"/><use transform="matrix(0.02,0,0,0.02,32.84,0)" xlink:href="#ao"/><use transform="matrix(0.02,0,0,0.02,42.480000000000004,0)" xlink:href="#U"/><use transform="matrix(0.02,0,0,0.02,58.78,0)" xlink:href="#ad"/><use transform="matrix(0.02,0,0,0.02,68.46000000000001,0)" xlink:href="#ag"/><use transform="matrix(0.02,0,0,0.02,79.76,0)" xlink:href="#ai"/><use transform="matrix(0.02,0,0,0.02,87.52,0)" xlink:href="#af"/><use transform="matrix(0.02,0,0,0.02,96.60000000000001,0)" xlink:href="#ah"/><use transform="matrix(0.02,0,0,0.02,102.44000000000003,0)" xlink:href="#T"/><use transform="matrix(0.02,0,0,0.02,107.4,0)" xlink:href="#V"/><use transform="matrix(0.02,0,0,0.02,117.60000000000001,0)" xlink:href="#ab"/><use transform="matrix(0.02,0,0,0.02,128.28,0)" xlink:href="#S"/><use transform="matrix(0.02,0,0,0.02,134.94000000000003,0)" xlink:href="#ai"/><use transform="matrix(0.02,0,0,0.02,141.54000000000002,0)" xlink:href="#an"/></g><path fill="#fff" d="M86 0v-700h188c258 0 392 136 392 350S532 0 274 0H86zm92-69h89c198 0 303-104 303-281 0-188-105-281-303-281h-89v562" id="as"/><path fill="#fff" d="M407 13C184 13 47-119 47-349c0-219 141-365 357-365 77 0 150 17 208 43v86c-50-29-124-53-206-53-161 0-264 107-264 289 0 231 184 335 399 267v-167H414v-65h216v286C571-3 487 13 407 13" id="at"/><path fill="#fff" d="M629 5L176-520V0H86v-706h47l453 528v-522h90V5h-47" id="au"/><g id="w"><use transform="matrix(0.02244444444444444,0,0,0.02244444444444444,0,0)" xlink:href="#as"/><use transform="matrix(0.02244444444444444,0,0,0.02244444444444444,16.07022222222222,0)" xlink:href="#at"/><use transform="matrix(0.02244444444444444,0,0,0.02244444444444444,31.736444444444437,0)" xlink:href="#au"/></g><path fill="#3a414a" d="M86 0v-700h92v631h315V0H86" id="av"/><path fill="#3a414a" d="M86 0v-700h412v69H178v220h286v69H178v273h320V0H86" id="aw"/><path fill="#3a414a" d="M407 13C184 13 47-119 47-349c0-219 141-365 357-365 77 0 150 17 208 43v86c-50-29-124-53-206-53-161 0-264 107-264 289 0 231 184 335 399 267v-167H414v-65h216v286C571-3 487 13 407 13" id="ax"/><path fill="#3a414a" d="M629 5L176-520V0H86v-706h47l453 528v-522h90V5h-47" id="ay"/><path fill="#3a414a" d="M86 0v-700h188c258 0 392 136 392 350S532 0 274 0H86zm92-69h89c198 0 303-104 303-281 0-188-105-281-303-281h-89v562" id="az"/><path fill="#3a414a" d="M122-339c-38 0-66-29-66-67s28-66 66-66 66 28 66 66-28 67-66 67zm0 352c-38 0-66-28-66-66 0-39 28-66 66-66s66 27 66 66c0 38-28 66-66 66" id="aA"/><g id="x"><use transform="matrix(0.02244444444444444,0,0,0.02244444444444444,0,0)" xlink:href="#av"/><use transform="matrix(0.02244444444444444,0,0,0.02244444444444444,11.581333333333331,0)" xlink:href="#aw"/><use transform="matrix(0.02244444444444444,0,0,0.02244444444444444,23.72377777777778,0)" xlink:href="#ax"/><use transform="matrix(0.02244444444444444,0,0,0.02244444444444444,39.38999999999999,0)" xlink:href="#aw"/><use transform="matrix(0.02244444444444444,0,0,0.02244444444444444,51.77933333333333,0)" xlink:href="#ay"/><use transform="matrix(0.02244444444444444,0,0,0.02244444444444444,68.88199999999999,0)" xlink:href="#az"/><use transform="matrix(0.02244444444444444,0,0,0.02244444444444444,84.92977777777777,0)" xlink:href="#aA"/></g><path fill="#3a414a" d="M86 0v-706h46l316 439 314-439h46V0h-90v-507L462-154h-31L176-507V0H86" id="aB"/><g id="A"><use transform="matrix(0.02244444444444444,0,0,0.02244444444444444,0,0)" xlink:href="#aB"/><use transform="matrix(0.02244444444444444,0,0,0.02244444444444444,20.06533333333333,0)" xlink:href="#T"/><use transform="matrix(0.02244444444444444,0,0,0.02244444444444444,25.63155555555555,0)" xlink:href="#Z"/><use transform="matrix(0.02244444444444444,0,0,0.02244444444444444,34.541999999999994,0)" xlink:href="#Z"/><use transform="matrix(0.02244444444444444,0,0,0.02244444444444444,43.474888888888884,0)" xlink:href="#T"/><use transform="matrix(0.02244444444444444,0,0,0.02244444444444444,49.0411111111111,0)" xlink:href="#X"/><use transform="matrix(0.02244444444444444,0,0,0.02244444444444444,61.18355555555556,0)" xlink:href="#ab"/><use transform="matrix(0.02244444444444444,0,0,0.02244444444444444,73.23622222222221,0)" xlink:href="#ai"/><use transform="matrix(0.02244444444444444,0,0,0.02244444444444444,81.94466666666665,0)" xlink:href="#af"/><use transform="matrix(0.02244444444444444,0,0,0.02244444444444444,92.13444444444443,0)" xlink:href="#Y"/><use transform="matrix(0.02244444444444444,0,0,0.02244444444444444,100.10222222222221,0)" xlink:href="#T"/><use transform="matrix(0.02244444444444444,0,0,0.02244444444444444,105.66844444444443,0)" xlink:href="#S"/><use transform="matrix(0.02244444444444444,0,0,0.02244444444444444,113.36688888888887,0)" xlink:href="#T"/><use transform="matrix(0.02244444444444444,0,0,0.02244444444444444,118.93311111111109,0)" xlink:href="#af"/><use transform="matrix(0.02244444444444444,0,0,0.02244444444444444,129.12288888888887,0)" xlink:href="#ad"/><use transform="matrix(0.02244444444444444,0,0,0.02244444444444444,139.986,0)" xlink:href="#ah"/></g><g id="B"><use transform="matrix(0.02244444444444444,0,0,0.02244444444444444,0,0)" xlink:href="#ah"/><use transform="matrix(0.02244444444444444,0,0,0.02244444444444444,6.553777777777777,0)" xlink:href="#T"/><use transform="matrix(0.02244444444444444,0,0,0.02244444444444444,12.119999999999997,0)" xlink:href="#ab"/><use transform="matrix(0.02244444444444444,0,0,0.02244444444444444,24.17266666666666,0)" xlink:href="#ao"/></g><g id="C"><use transform="matrix(0.02244444444444444,0,0,0.02244444444444444,0,0)" xlink:href="#aq"/><use transform="matrix(0.02244444444444444,0,0,0.02244444444444444,12.27711111111111,0)" xlink:href="#T"/><use transform="matrix(0.02244444444444444,0,0,0.02244444444444444,17.84333333333333,0)" xlink:href="#W"/><use transform="matrix(0.02244444444444444,0,0,0.02244444444444444,30.097999999999995,0)" xlink:href="#T"/><use transform="matrix(0.02244444444444444,0,0,0.02244444444444444,35.664222222222214,0)" xlink:href="#Y"/><use transform="matrix(0.02244444444444444,0,0,0.02244444444444444,43.340222222222216,0)" xlink:href="#V"/><use transform="matrix(0.02244444444444444,0,0,0.02244444444444444,54.966444444444434,0)" xlink:href="#af"/><use transform="matrix(0.02244444444444444,0,0,0.02244444444444444,65.44799999999998,0)" xlink:href="#S"/><use transform="matrix(0.02244444444444444,0,0,0.02244444444444444,73.14644444444443,0)" xlink:href="#T"/><use transform="matrix(0.02244444444444444,0,0,0.02244444444444444,78.71266666666665,0)" xlink:href="#X"/><use transform="matrix(0.02244444444444444,0,0,0.02244444444444444,90.85511111111109,0)" xlink:href="#ab"/><use transform="matrix(0.02244444444444444,0,0,0.02244444444444444,102.90777777777775,0)" xlink:href="#ad"/><use transform="matrix(0.02244444444444444,0,0,0.02244444444444444,113.77088888888886,0)" xlink:href="#ah"/></g><g id="D"><use transform="matrix(0.02244444444444444,0,0,0.02244444444444444,0,0)" xlink:href="#aa"/><use transform="matrix(0.02244444444444444,0,0,0.02244444444444444,6.127333333333333,0)" xlink:href="#ab"/><use transform="matrix(0.02244444444444444,0,0,0.02244444444444444,18.112666666666666,0)" xlink:href="#S"/><use transform="matrix(0.02244444444444444,0,0,0.02244444444444444,25.67644444444444,0)" xlink:href="#V"/><use transform="matrix(0.02244444444444444,0,0,0.02244444444444444,37.12311111111111,0)" xlink:href="#Y"/><use transform="matrix(0.02244444444444444,0,0,0.02244444444444444,45.090888888888884,0)" xlink:href="#ab"/><use transform="matrix(0.02244444444444444,0,0,0.02244444444444444,57.14355555555556,0)" xlink:href="#ad"/><use transform="matrix(0.02244444444444444,0,0,0.02244444444444444,68.00666666666666,0)" xlink:href="#ah"/></g><g id="E"><use transform="matrix(0.02244444444444444,0,0,0.02244444444444444,0,0)" xlink:href="#ah"/><use transform="matrix(0.02244444444444444,0,0,0.02244444444444444,6.553777777777777,0)" xlink:href="#T"/><use transform="matrix(0.02244444444444444,0,0,0.02244444444444444,12.119999999999997,0)" xlink:href="#ab"/><use transform="matrix(0.02244444444444444,0,0,0.02244444444444444,24.17266666666666,0)" xlink:href="#ao"/></g><path fill="#3a414a" d="M250 145C147 22 76-145 76-322s70-342 174-468h88c-84 96-177 264-177 468 0 202 93 371 177 467h-88" id="aC"/><g id="F"><use transform="matrix(0.02244444444444444,0,0,0.02244444444444444,0,0)" xlink:href="#aC"/><use transform="matrix(0.02244444444444444,0,0,0.02244444444444444,8.39422222222222,0)" xlink:href="#ab"/><use transform="matrix(0.02244444444444444,0,0,0.02244444444444444,20.446888888888886,0)" xlink:href="#X"/><use transform="matrix(0.02244444444444444,0,0,0.02244444444444444,32.52199999999999,0)" xlink:href="#S"/></g><g id="G"><use transform="matrix(0.02244444444444444,0,0,0.02244444444444444,0,0)" xlink:href="#ab"/><use transform="matrix(0.02244444444444444,0,0,0.02244444444444444,12.052666666666665,0)" xlink:href="#X"/><use transform="matrix(0.02244444444444444,0,0,0.02244444444444444,24.195111111111107,0)" xlink:href="#Y"/><use transform="matrix(0.02244444444444444,0,0,0.02244444444444444,32.16288888888889,0)" xlink:href="#U"/><use transform="matrix(0.02244444444444444,0,0,0.02244444444444444,50.455111111111115,0)" xlink:href="#ad"/><use transform="matrix(0.02244444444444444,0,0,0.02244444444444444,61.318222222222225,0)" xlink:href="#ah"/><use transform="matrix(0.02244444444444444,0,0,0.02244444444444444,67.872,0)" xlink:href="#ah"/><use transform="matrix(0.02244444444444444,0,0,0.02244444444444444,74.24622222222223,0)" xlink:href="#ap"/></g><path fill="#3a414a" d="M37 145c84-96 176-265 176-467 0-204-93-372-177-468h88c104 126 174 291 174 468S227 22 124 145H37" id="aD"/><g id="H"><use transform="matrix(0.02244444444444444,0,0,0.02244444444444444,0,0)" xlink:href="#af"/><use transform="matrix(0.02244444444444444,0,0,0.02244444444444444,10.144888888888888,0)" xlink:href="#X"/><use transform="matrix(0.02244444444444444,0,0,0.02244444444444444,22.28733333333333,0)" xlink:href="#ab"/><use transform="matrix(0.02244444444444444,0,0,0.02244444444444444,34.339999999999996,0)" xlink:href="#ab"/><use transform="matrix(0.02244444444444444,0,0,0.02244444444444444,46.392666666666656,0)" xlink:href="#V"/><use transform="matrix(0.02244444444444444,0,0,0.02244444444444444,58.01888888888888,0)" xlink:href="#af"/><use transform="matrix(0.02244444444444444,0,0,0.02244444444444444,68.50044444444443,0)" xlink:href="#S"/><use transform="matrix(0.02244444444444444,0,0,0.02244444444444444,76.06422222222221,0)" xlink:href="#V"/><use transform="matrix(0.02244444444444444,0,0,0.02244444444444444,87.75777777777776,0)" xlink:href="#W"/><use transform="matrix(0.02244444444444444,0,0,0.02244444444444444,100.01244444444443,0)" xlink:href="#aD"/></g><g id="I"><use transform="matrix(0.02244444444444444,0,0,0.02244444444444444,0,0)" xlink:href="#af"/><use transform="matrix(0.02244444444444444,0,0,0.02244444444444444,10.144888888888888,0)" xlink:href="#X"/><use transform="matrix(0.02244444444444444,0,0,0.02244444444444444,22.28733333333333,0)" xlink:href="#ab"/><use transform="matrix(0.02244444444444444,0,0,0.02244444444444444,34.339999999999996,0)" xlink:href="#ab"/><use transform="matrix(0.02244444444444444,0,0,0.02244444444444444,46.392666666666656,0)" xlink:href="#V"/><use transform="matrix(0.02244444444444444,0,0,0.02244444444444444,58.01888888888888,0)" xlink:href="#af"/><use transform="matrix(0.02244444444444444,0,0,0.02244444444444444,68.50044444444443,0)" xlink:href="#S"/><use transform="matrix(0.02244444444444444,0,0,0.02244444444444444,76.06422222222221,0)" xlink:href="#V"/><use transform="matrix(0.02244444444444444,0,0,0.02244444444444444,87.75777777777776,0)" xlink:href="#W"/><use transform="matrix(0.02244444444444444,0,0,0.02244444444444444,100.01244444444443,0)" xlink:href="#aD"/></g><g id="J"><use transform="matrix(0.02244444444444444,0,0,0.02244444444444444,0,0)" xlink:href="#ay"/><use transform="matrix(0.02244444444444444,0,0,0.02244444444444444,17.102666666666664,0)" xlink:href="#X"/><use transform="matrix(0.02244444444444444,0,0,0.02244444444444444,29.177777777777766,0)" xlink:href="#S"/></g><path fill="#3a414a" d="M235 12C152 12 86-10 51-32v-84c47 32 119 56 182 56 96 0 150-43 150-123 0-73-70-109-159-151-83-38-168-89-168-201 0-104 81-179 218-179 69 0 128 18 166 38v86c-41-27-100-52-164-52-81 0-130 34-130 104 0 69 68 104 140 138 100 46 188 98 188 215 0 113-92 197-239 197" id="aE"/><path fill="#3a414a" d="M312-480c73 0 157 37 157 173V0h-85v-298c-2-163-168-125-227-39V0H72v-720h84v322c41-48 90-82 156-82" id="aF"/><path fill="#3a414a" d="M187 5L6-468h89l113 321 127-321h33l129 321 111-321h88L514 5h-33L351-320 220 5h-33" id="aG"/><g id="K"><use transform="matrix(0.02244444444444444,0,0,0.02244444444444444,0,0)" xlink:href="#aE"/><use transform="matrix(0.02244444444444444,0,0,0.02244444444444444,11.738444444444442,0)" xlink:href="#aF"/><use transform="matrix(0.02244444444444444,0,0,0.02244444444444444,23.791111111111107,0)" xlink:href="#X"/><use transform="matrix(0.02244444444444444,0,0,0.02244444444444444,35.82133333333333,0)" xlink:href="#aG"/><use transform="matrix(0.02244444444444444,0,0,0.02244444444444444,51.55488888888888,0)" xlink:href="#ab"/></g><g id="L"><use transform="matrix(0.02244444444444444,0,0,0.02244444444444444,0,0)" xlink:href="#X"/><use transform="matrix(0.02244444444444444,0,0,0.02244444444444444,12.142444444444441,0)" xlink:href="#ab"/></g><g id="M"><use transform="matrix(0.02244444444444444,0,0,0.02244444444444444,0,0)" xlink:href="#aw"/><use transform="matrix(0.02244444444444444,0,0,0.02244444444444444,12.456666666666665,0)" xlink:href="#ab"/><use transform="matrix(0.02244444444444444,0,0,0.02244444444444444,24.50933333333333,0)" xlink:href="#ak"/><use transform="matrix(0.02244444444444444,0,0,0.02244444444444444,36.763999999999996,0)" xlink:href="#T"/><use transform="matrix(0.02244444444444444,0,0,0.02244444444444444,42.33022222222222,0)" xlink:href="#ab"/><use transform="matrix(0.02244444444444444,0,0,0.02244444444444444,54.38288888888889,0)" xlink:href="#V"/><use transform="matrix(0.02244444444444444,0,0,0.02244444444444444,66.00911111111111,0)" xlink:href="#V"/><use transform="matrix(0.02244444444444444,0,0,0.02244444444444444,77.45577777777777,0)" xlink:href="#Y"/><use transform="matrix(0.02244444444444444,0,0,0.02244444444444444,85.42355555555554,0)" xlink:href="#T"/><use transform="matrix(0.02244444444444444,0,0,0.02244444444444444,90.98977777777776,0)" xlink:href="#ab"/><use transform="matrix(0.02244444444444444,0,0,0.02244444444444444,103.04244444444443,0)" xlink:href="#ak"/></g><g id="N"><use transform="matrix(0.02244444444444444,0,0,0.02244444444444444,0,0)" xlink:href="#aE"/><use transform="matrix(0.02244444444444444,0,0,0.02244444444444444,11.895555555555553,0)" xlink:href="#V"/><use transform="matrix(0.02244444444444444,0,0,0.02244444444444444,23.34222222222222,0)" xlink:href="#Y"/><use transform="matrix(0.02244444444444444,0,0,0.02244444444444444,31.983333333333327,0)" xlink:href="#al"/><use transform="matrix(0.02244444444444444,0,0,0.02244444444444444,42.12822222222221,0)" xlink:href="#T"/><use transform="matrix(0.02244444444444444,0,0,0.02244444444444444,47.694444444444436,0)" xlink:href="#af"/><use transform="matrix(0.02244444444444444,0,0,0.02244444444444444,57.83933333333332,0)" xlink:href="#V"/><use transform="matrix(0.02244444444444444,0,0,0.02244444444444444,69.57777777777775,0)" xlink:href="#Z"/></g><g id="O"><use transform="matrix(0.02244444444444444,0,0,0.02244444444444444,0,0)" xlink:href="#aE"/><use transform="matrix(0.02244444444444444,0,0,0.02244444444444444,11.581333333333331,0)" xlink:href="#ap"/><use transform="matrix(0.02244444444444444,0,0,0.02244444444444444,21.636444444444443,0)" xlink:href="#Z"/><use transform="matrix(0.02244444444444444,0,0,0.02244444444444444,30.45711111111111,0)" xlink:href="#S"/><use transform="matrix(0.02244444444444444,0,0,0.02244444444444444,38.020888888888884,0)" xlink:href="#V"/><use transform="matrix(0.02244444444444444,0,0,0.02244444444444444,49.46755555555555,0)" xlink:href="#U"/></g><g id="P"><use transform="matrix(0.02244444444444444,0,0,0.02244444444444444,0,0)" xlink:href="#aB"/><use transform="matrix(0.02244444444444444,0,0,0.02244444444444444,20.06533333333333,0)" xlink:href="#ad"/><use transform="matrix(0.02244444444444444,0,0,0.02244444444444444,30.928444444444438,0)" xlink:href="#ag"/></g><path fill="#3a414a" d="M357 13C186 13 84-77 84-242v-458h93v450c0 126 59 188 181 188 117 0 180-62 180-188v-450h92v458C630-78 529 13 357 13" id="aH"/><g id="Q"><use transform="matrix(0.02244444444444444,0,0,0.02244444444444444,0,0)" xlink:href="#aH"/><use transform="matrix(0.02244444444444444,0,0,0.02244444444444444,16.02533333333333,0)" xlink:href="#aa"/></g><g id="R"><use transform="matrix(0.02244444444444444,0,0,0.02244444444444444,0,0)" xlink:href="#ah"/><use transform="matrix(0.02244444444444444,0,0,0.02244444444444444,6.553777777777777,0)" xlink:href="#T"/><use transform="matrix(0.02244444444444444,0,0,0.02244444444444444,12.119999999999997,0)" xlink:href="#ab"/><use transform="matrix(0.02244444444444444,0,0,0.02244444444444444,24.17266666666666,0)" xlink:href="#ao"/></g></defs></g></svg>